<?xml version="1.0" encoding="UTF-8" standalone="no"?>
<svg xmlns="http://www.w3.org/2000/svg" viewBox="0 0 1000 600">
  <!-- MacBook Body -->
  <rect x="150" y="100" width="700" height="400" rx="20" ry="20" fill="#d8d8d8" />
  
  <!-- Screen -->
  <rect x="170" y="120" width="660" height="360" rx="5" ry="5" fill="#333" />
  <rect x="190" y="140" width="620" height="320" fill="#f5f5f5" />
  
  <!-- App Interface (simplified) -->
  <rect x="220" y="170" width="560" height="40" rx="5" ry="5" fill="#e0e0e0" />
  <rect x="220" y="230" width="200" height="200" rx="5" ry="5" fill="#4285f4" />
  <rect x="440" y="230" width="340" height="80" rx="5" ry="5" fill="#e0e0e0" />
  <rect x="440" y="330" width="340" height="100" rx="5" ry="5" fill="#e0e0e0" />
  
  <!-- Chart/Graph in the app -->
  <rect x="250" y="260" width="140" height="20" fill="#5c94f2" />
  <rect x="250" y="290" width="100" height="20" fill="#5c94f2" />
  <rect x="250" y="320" width="120" height="20" fill="#5c94f2" />
  <rect x="250" y="350" width="80" height="20" fill="#5c94f2" />
  
  <!-- Base -->
  <path d="M100,500 L900,500 C920,500 950,510 950,530 L950,540 C950,550 930,560 900,560 L100,560 C70,560 50,550 50,540 L50,530 C50,510 80,500 100,500 Z" fill="#d8d8d8" />
  
  <!-- Touchpad -->
  <rect x="400" y="520" width="200" height="20" rx="10" ry="10" fill="#bbb" />
</svg>