<svg xmlns="http://www.w3.org/2000/svg" viewBox="0 0 512 512">
  <circle cx="256" cy="256" r="256" fill="#25D366"/>
  <path fill="#FFFFFF" d="M380.6 309.4c-8.1-4-47.9-23.7-55.3-26.3-7.4-2.6-12.8-4-18.2 4-5.4 8.1-20.9 26.3-25.6 31.7-4.7 5.4-9.4 6.1-17.5 2-8.1-4-34.4-12.7-65.5-40.5-24.2-21.6-40.5-48.2-45.3-56.3-4.7-8.1-.5-12.5 3.5-16.5 3.6-3.6 8.1-9.4 12.1-14.1 4-4.7 5.4-8.1 8.1-13.5 2.7-5.4 1.3-10.1-.7-14.1-2-4-18.2-43.9-24.9-60.1-6.6-15.8-13.2-13.7-18.2-13.9-4.7-.2-10.1-.2-15.5-.2-5.4 0-14.2 2-21.6 10.1-7.4 8.1-28.3 27.7-28.3 67.6 0 39.9 29 78.5 33 83.9 4 5.4 56.6 86.5 137.1 121.5 19.1 8.2 34 13.2 45.7 16.8 19.2 6.1 36.6 5.2 50.4 3.2 15.4-2.3 47.9-19.6 54.6-38.5 6.7-18.9 6.7-35.1 4.7-38.5-2-3.3-7.4-5.3-15.5-9.3z"/>
</svg>